<svg
  width="340"
  height="120"
  viewBox="0 0 340 120"
  fill="none"
  xmlns="http://www.w3.org/2000/svg"
>
  <path d="M40 35 L90 60 L40 85 L50 60 Z" fill="white" stroke="none" />
  <line x1="40" y1="35" x2="90" y2="60" stroke="black" stroke-width="2" />
  <line x1="40" y1="85" x2="90" y2="60" stroke="black" stroke-width="2" />
  <line x1="40" y1="35" x2="50" y2="60" stroke="black" stroke-width="3" />
  <line x1="40" y1="85" x2="50" y2="60" stroke="black" stroke-width="3" />

  <path d="M10 55 H55 V65 H10 Z" fill="white" stroke="none" stroke-width="2" stroke-linejoin="round" />
  <line x1="10" y1="55" x2="10" y2="65" stroke="black" stroke-width="2" />
  <line x1="10" y1="55" x2="57" y2="55" stroke="black" stroke-width="2" />
  <line x1="10" y1="65" x2="60" y2="65" stroke="black" stroke-width="2" />

  <circle cx="23" cy="60" r="1.5" fill="black" />
  <circle cx="30" cy="60" r="1.5" fill="black" />
  <circle cx="37" cy="60" r="1.5" fill="black" />
  <circle cx="44" cy="60" r="1.5" fill="black" />
  <circle cx="51" cy="60" r="1.5" fill="black" />
  <circle cx="58" cy="60" r="1.5" fill="black" />

  <line x1="31" y1="35" x2="39" y2="35" stroke="white" stroke-width="1" />
  <line x1="38" y1="43" x2="42" y2="43" stroke="white" stroke-width="2" />
  <line x1="40" y1="50" x2="45" y2="50" stroke="white" stroke-width="2" />
  <line x1="40" y1="70" x2="45" y2="70" stroke="white" stroke-width="2" />
  <line x1="38" y1="77" x2="42" y2="77" stroke="white" stroke-width="2" />
  <line x1="31" y1="85" x2="39" y2="85" stroke="white" stroke-width="1" />
  <line x1="3" y1="45" x2="9" y2="45" stroke="white" stroke-width="1" />

  <path d="M25 55 L8 45 L11 55 Z" fill="white" stroke="black" stroke-width="1" />

  <text
    x="95"
    y="70"
    fill="white"
    font-weight="bold"
    font-size="30"
    font-family="Zain, sans-serif"
  >
    WingPath
  </text>

  <text
    x="120"
    y="90"
    fill="white"
    font-size="12"
    font-family="sans-serif"
    font-style="italic"
    opacity="0.8"
  >
    Navigating Air &amp; Sea
  </text>
</svg>